<svg xmlns="http://www.w3.org/2000/svg" xmlns:xlink="http://www.w3.org/1999/xlink" width="115" height="48" viewBox="0 0 115 48">
    <defs>
        <path id="a" d="M0 .158h62.621V25.52H.001z"/>
    </defs>
    <g fill="none" fill-rule="evenodd">
        <g transform="translate(52)">
            <mask id="b" fill="#fff">
                <use xlink:href="#a"/>
            </mask>
            <path fill="#FFF" d="M60.316 20.114c-.653 0-1.324-.242-1.703-.443-7.736-4.094-16.509-6.515-25.03-6.515-1.068 0-1.858.045-2.853.145 1.607 2.597 4.375 6.375 6.273 8.69.492.601.64.964.64 1.543 0 1.01-1.046 1.987-2.157 1.987-.742 0-1.186-.297-1.873-1.118-2.311-2.754-5.778-7.637-7.424-10.408-8.086 1.455-17.1 6.309-22.428 10.596-.608.497-1.032.701-1.644.701-1.132 0-2.116-.991-2.116-2.123 0-.654.238-1.148 1.071-1.852C9.202 14.438 21.83 9.005 32.554 9.005c4.25 0 8.352.599 12.319 1.585 2.407.598 5.978 1.815 9.018 3.164-7.972-4.898-17.967-9.372-24.287-9.372-1.611 0-2.598.548-2.598 1.653 0 .65.358 1.518.887 2.393-1.264.13-2.93.392-4.19.734-.66-1.227-1.118-2.537-1.118-3.943 0-3.134 2.008-5.061 6.052-5.061 9.16 0 24.556 8.679 32.238 15.018.88.726 1.746 1.627 1.746 2.683 0 1.044-.89 2.255-2.305 2.255" mask="url(#b)"/>
        </g>
        <path fill="#FFF" d="M13 37.95c0-.586.343-.95.87-.95.528 0 .856.364.856.95v.99c.46-.976 1.48-1.94 2.397-1.94.591 0 .877.36.877.835 0 .466-.246.814-1.005 1.033-1.576.453-2.265 1.365-2.265 3.115v5.067c0 .586-.332.95-.86.95-.527 0-.87-.364-.87-.95v-9.1zM50 37.95c0-.586.343-.95.87-.95.528 0 .856.364.856.95v.99c.46-.976 1.48-1.94 2.397-1.94.591 0 .877.36.877.835 0 .466-.246.814-1.005 1.033-1.576.453-2.265 1.365-2.265 3.115v5.067c0 .586-.332.95-.86.95-.527 0-.87-.364-.87-.95v-9.1zM22.395 37c1.578 0 2.592.702 2.592 1.333 0 .378-.254.755-.637.755-.59 0-.87-.528-1.955-.528-1.832 0-2.773 1.817-2.773 3.94 0 2.301 1.06 3.941 2.773 3.941 1.195 0 1.457-.547 2.019-.547.364 0 .586.273.586.693 0 .405-.302.734-.847 1.012-.475.243-1.103.401-1.758.401C19.65 48 18 45.715 18 42.5c0-3.146 1.663-5.5 4.395-5.5M27.712 43.187c.032 1.76 1.117 3.254 3.023 3.254 2.003 0 2.477-1.179 3.2-1.179.408 0 .692.289.692.74 0 .87-1.83 1.998-3.876 1.998-1.53 0-2.558-.51-3.324-1.325C26.454 45.638 26 44.107 26 42.5 26 39.562 27.733 37 30.602 37 33.269 37 35 39.474 35 42.237c0 .626-.242.95-.944.95h-6.344zm5.583-1.334c0-1.537-.833-3.293-2.7-3.293-1.837 0-2.82 1.513-2.883 3.293h5.583zM38 47.091c0 .561-.388.909-.998.909S36 47.652 36 47.091V34.909c0-.56.393-.909 1.002-.909.61 0 .998.348.998.909v12.182zM43.5 48c-2.703 0-4.5-2.267-4.5-5.5 0-3.232 1.797-5.5 4.5-5.5 2.703 0 4.5 2.268 4.5 5.5 0 3.233-1.797 5.5-4.5 5.5m0-1.561c1.657 0 2.793-1.522 2.793-3.939 0-2.418-1.136-3.938-2.793-3.938-1.657 0-2.793 1.52-2.793 3.938 0 2.417 1.136 3.939 2.793 3.939M67.111 38.19c-.969 3.28-2.558 8.67-2.689 9.114-.144.49-.448.696-.922.696-.474 0-.768-.173-.922-.696l-2.76-9.356a21.97 21.97 0 0 1-.416-1.704 51.266 51.266 0 0 1-.244 1.71c-.496 3.066-1.265 7.847-1.479 9.197-.094.595-.4.849-.904.849-.473 0-.775-.313-.775-.81 0-.194.04-.446.097-.774 0 0 1.741-10.331 1.88-11.12.15-.845.593-1.296 1.316-1.296.642 0 1.153.372 1.356 1.074.127.437 1.53 5.29 2.423 8.357.164.565.328 1.232.454 1.834.12-.59.273-1.227.433-1.78l2.45-8.41c.204-.703.657-1.075 1.3-1.075.678 0 1.175.436 1.314 1.296.127.79 1.88 11.12 1.88 11.12.059.328.097.58.097.773 0 .498-.301.811-.774.811-.505 0-.811-.254-.905-.85-.208-1.31-.94-5.861-1.436-8.932a50.893 50.893 0 0 1-.272-1.988 29.479 29.479 0 0 1-.502 1.96M73 35c.556 0 1 .446 1 1.003a.997.997 0 0 1-1 1.003c-.556 0-1-.446-1-1.003A.997.997 0 0 1 73 35zm.822 3.77c0-.539-.322-.873-.822-.873-.5 0-.818.334-.818.873v8.357c0 .54.318.873.818.873.5 0 .822-.334.822-.873V38.77zM77.244 35.873c0-.538.281-.873.723-.873.441 0 .725.335.725.873v2.136h.589c.474 0 .719.263.719.709 0 .445-.245.712-.72.712h-.588v7.697c0 .539-.284.873-.725.873-.442 0-.723-.334-.723-.873V39.43h-.524c-.475 0-.72-.267-.72-.712 0-.446.245-.71.72-.71h.524v-2.135zM82.246 35.873c0-.538.284-.873.725-.873s.722.335.722.873v2.136h.588c.474 0 .719.263.719.709 0 .445-.245.712-.719.712h-.588v7.697c0 .539-.28.873-.722.873-.441 0-.725-.334-.725-.873V39.43h-.527c-.474 0-.719-.267-.719-.712 0-.446.245-.71.719-.71h.527v-2.135zM11.758 46.434c-.372-.96-3.85-9.947-4.391-11.333C7.095 34.405 6.679 34 5.992 34c-.704 0-1.078.405-1.352 1.101-.245.623-4.033 10.376-4.41 11.333-.166.42-.23.647-.23.83 0 .428.382.736.845.736.478 0 .752-.238.902-.638l1.212-3.26h6.067c.592 1.597 1.069 2.88 1.211 3.26.135.36.382.638.866.638.462 0 .897-.27.897-.715 0-.196-.048-.353-.242-.851zM3.521 42.59l2.085-5.62c.15-.405.284-.79.388-1.11.111.346.249.742.384 1.108l2.086 5.622H3.52zM100 47.091c0 .561-.392.909-1.002.909S98 47.652 98 47.091V34.909c0-.56.388-.909.998-.909s1.002.348 1.002.909v12.182zM94.146 37.004c-.52 0-.85.363-.85.95v.804C92.666 37.67 91.645 37 90.379 37 87.784 37 86 39.268 86 42.5s1.784 5.5 4.38 5.5c1.265 0 2.286-.671 2.916-1.758v.804c0 .587.33.95.85.95s.854-.363.854-.95v-9.093c0-.586-.334-.95-.854-.95m-3.634 9.438c-1.661 0-2.8-1.524-2.8-3.94 0-2.419 1.139-3.942 2.8-3.942 1.66 0 2.8 1.523 2.8 3.941 0 2.417-1.14 3.94-2.8 3.94"/>
    </g>
</svg>
